<?xml version="1.0" standalone="no"?>
<!DOCTYPE svg PUBLIC "-//W3C//DTD SVG 20010904//EN"
 "http://www.w3.org/TR/2001/REC-SVG-20010904/DTD/svg10.dtd">
<svg version="1.0" xmlns="http://www.w3.org/2000/svg"
 width="128.000000pt" height="128.000000pt" viewBox="0 0 128.000000 128.000000"
 preserveAspectRatio="xMidYMid meet">
<metadata>
Created by potrace 1.11, written by Peter Selinger 2001-2013
</metadata>
<g transform="translate(0.000000,128.000000) scale(0.100000,-0.100000)"
fill="#000000" stroke="none">
<path d="M807 1256 c-60 -16 -145 -74 -176 -121 -22 -32 -28 -35 -72 -35 -126
0 -234 -46 -330 -140 -130 -129 -174 -306 -118 -484 20 -67 114 -212 142 -222
10 -3 27 -19 37 -36 11 -19 19 -25 23 -16 2 7 8 9 13 5 12 -11 -16 -26 -35
-19 -14 5 -14 3 -3 -11 16 -19 31 -18 50 3 12 13 13 13 8 -2 -6 -19 9 -25 17
-8 3 6 4 5 3 -2 -2 -7 -9 -14 -17 -14 -8 -1 -16 -3 -19 -4 -22 -8 -39 -7 -33
3 4 7 -2 5 -13 -3 -18 -14 -18 -14 -4 4 12 16 12 18 1 11 -10 -6 -12 -4 -6 5
5 8 4 11 -2 7 -5 -3 -9 7 -9 23 0 16 4 26 9 23 6 -4 7 -1 3 6 -5 7 -11 10 -14
7 -3 -3 -11 -1 -19 5 -8 8 -13 8 -13 1 0 -6 5 -12 12 -14 7 -3 6 -7 -5 -11 -9
-3 -17 -2 -17 3 0 19 -21 10 -31 -14 -7 -14 -17 -22 -24 -20 -7 3 -15 1 -19
-4 -3 -5 5 -8 16 -7 12 1 24 7 26 13 2 7 8 10 13 7 5 -4 6 2 3 12 -5 16 -4 15
11 -2 9 -12 11 -21 5 -23 -5 -2 -10 -11 -10 -20 0 -15 -2 -15 -10 -2 -5 8 -10
11 -10 5 0 -5 4 -16 8 -23 6 -9 12 -6 20 13 6 14 16 25 22 25 7 0 7 -7 0 -21
-7 -11 -9 -24 -5 -27 3 -3 8 4 12 16 3 12 9 19 14 16 5 -3 4 -14 -2 -25 -9
-18 -8 -19 9 -10 26 14 36 2 14 -17 -9 -8 -4 -6 12 3 29 18 30 17 53 -9 13
-15 23 -23 23 -17 0 5 -5 13 -10 16 -6 4 -7 11 -4 17 4 6 2 8 -4 4 -6 -3 -13
-2 -17 3 -3 6 3 8 15 6 11 -2 20 2 20 8 0 7 4 6 10 -3 5 -8 10 -19 10 -25 0
-5 -5 -3 -10 5 -6 9 -10 10 -10 3 0 -6 5 -15 10 -18 7 -4 6 -14 -1 -28 -9 -20
-9 -20 4 -5 11 14 16 15 27 5 10 -10 11 -9 4 3 -5 8 -9 22 -9 30 0 8 -6 24
-12 36 -9 16 -9 21 1 21 7 0 13 -6 14 -14 1 -7 3 -20 4 -28 1 -8 5 -15 10 -15
5 0 6 -5 3 -10 -3 -6 3 -10 13 -10 11 0 25 -7 32 -15 7 -9 15 -13 17 -11 6 5
-34 46 -44 45 -16 -1 -12 17 7 29 14 9 20 9 20 1 0 -8 5 -8 15 1 13 11 14 10
9 -3 -4 -11 0 -15 12 -13 10 2 20 8 22 14 2 7 9 9 15 5 17 -11 71 -10 79 2 5
6 8 5 8 -2 0 -7 5 -13 11 -13 5 0 8 3 6 8 -3 4 6 8 19 8 13 1 24 -2 24 -8 0
-5 6 -6 13 -2 8 5 8 2 -2 -9 -9 -12 -10 -17 -2 -17 7 0 10 -4 7 -8 -2 -4 -1
-14 4 -22 7 -12 10 -12 16 3 3 9 10 14 15 11 5 -3 6 -10 3 -16 -4 -6 -2 -8 4
-4 6 3 9 17 6 31 -3 20 -1 23 12 18 13 -5 15 -3 9 8 -4 8 -5 11 0 7 4 -4 19 7
32 24 17 24 20 34 10 40 -6 4 -7 8 -1 8 5 0 15 -5 22 -12 7 -7 12 -8 12 -2 0
5 -5 15 -11 21 -7 7 -6 12 5 16 10 4 13 1 10 -8 -4 -10 0 -13 15 -10 14 2 19
0 15 -7 -4 -6 -3 -9 2 -5 5 3 17 -1 27 -8 16 -11 16 -13 2 -19 -9 -3 -13 -10
-10 -16 3 -5 2 -10 -4 -10 -5 0 -12 6 -15 13 -3 6 -3 1 0 -13 l5 -25 -16 25
c-12 18 -15 20 -10 5 5 -16 4 -17 -6 -8 -10 10 -17 9 -33 -4 -21 -17 -21 -17
0 6 11 12 29 24 40 26 10 2 20 4 22 4 1 1 -3 7 -10 15 -11 11 -15 11 -25 -3
-7 -9 -13 -12 -13 -7 0 5 -9 -3 -20 -17 -12 -15 -17 -32 -14 -42 5 -12 2 -16
-11 -13 -10 2 -20 -4 -22 -12 -4 -13 -3 -13 6 0 9 12 11 13 11 1 0 -8 3 -11 7
-8 3 4 13 1 22 -6 14 -10 14 -10 3 4 -10 14 -10 20 3 33 23 22 42 20 22 -2
-14 -15 -14 -19 -3 -19 8 0 14 5 13 10 -1 5 4 12 12 15 8 2 11 0 7 -6 -3 -6
-1 -14 5 -18 7 -4 9 -3 6 3 -4 6 5 21 18 33 14 13 25 18 25 12 0 -6 -5 -14
-10 -17 -5 -3 -10 -12 -10 -18 0 -8 4 -7 9 2 5 8 20 16 32 18 13 2 25 6 28 10
3 3 -4 4 -16 1 -26 -7 -39 18 -21 40 8 10 9 13 2 9 -7 -4 -14 -1 -16 6 -7 18
2 38 14 31 5 -3 4 3 -3 14 -7 12 -17 18 -21 16 -4 -3 -8 0 -8 6 0 6 -5 8 -11
4 -8 -4 -4 -11 10 -18 12 -7 18 -15 15 -19 -4 -4 -17 1 -28 10 -20 18 -21 18
-5 -2 30 -38 33 -49 7 -29 -32 24 -31 33 14 82 74 82 116 177 124 282 5 56 10
68 32 85 101 76 147 163 146 280 0 93 -20 149 -79 214 -47 52 -92 79 -158 97
-63 17 -107 17 -170 0z m-551 -1055 c0 -11 -5 -17 -13 -14 -17 6 -17 20 0 26
6 3 12 6 12 6 1 1 1 -7 1 -18z m551 -17 c-3 -3 -12 -4 -19 -1 -8 3 -5 6 6 6
11 1 17 -2 13 -5z m-25 -18 c7 4 8 2 4 -4 -11 -18 -26 -14 -25 6 0 10 3 12 6
4 2 -6 10 -9 15 -6z m-57 -6 c-3 -5 -12 -10 -18 -10 -7 0 -6 4 3 10 19 12 23
12 15 0z m17 -22 c-9 -9 -9 -15 0 -27 7 -9 8 -13 4 -9 -5 4 -15 3 -22 -3 -9
-7 -12 -6 -10 3 6 27 18 48 29 48 8 0 7 -4 -1 -12z"/>
<path d="M166 302 c-3 -5 1 -9 9 -9 8 0 12 4 9 9 -3 4 -7 8 -9 8 -2 0 -6 -4
-9 -8z"/>
<path d="M935 301 c-3 -5 -2 -12 3 -15 5 -3 9 1 9 9 0 17 -3 19 -12 6z"/>
<path d="M189 243 c-13 -17 -13 -17 6 -3 11 8 22 16 24 17 2 2 0 3 -6 3 -6 0
-17 -8 -24 -17z"/>
<path d="M951 221 c-11 -7 -8 -10 10 -16 22 -7 22 -8 4 -21 -20 -15 -17 -28 3
-15 7 4 14 17 17 29 3 16 0 19 -12 15 -11 -4 -14 -2 -9 5 9 14 6 15 -13 3z"/>
<path d="M270 199 c0 -5 5 -7 10 -4 6 3 10 8 10 11 0 2 -4 4 -10 4 -5 0 -10
-5 -10 -11z"/>
<path d="M893 185 c0 -8 4 -12 9 -9 5 3 6 10 3 15 -9 13 -12 11 -12 -6z"/>
<path d="M1034 166 c1 -8 5 -18 8 -22 4 -3 5 1 4 10 -1 8 -5 18 -8 22 -4 3 -5
-1 -4 -10z"/>
<path d="M999 153 c-13 -16 -12 -17 4 -4 16 13 21 21 13 21 -2 0 -10 -8 -17
-17z"/>
<path d="M144 143 c4 -4 16 -8 28 -10 28 -4 18 6 -12 12 -12 2 -20 1 -16 -2z"/>
<path d="M660 130 c-8 -5 -27 -7 -42 -5 -16 3 -28 1 -28 -5 0 -7 -5 -8 -12 -3
-19 11 -41 13 -53 4 -10 -9 -29 -8 -56 4 -10 4 -20 1 -25 -7 -4 -7 -4 -10 1
-6 4 4 14 3 22 -3 7 -6 13 -8 13 -3 1 5 7 -2 15 -16 9 -16 14 -19 15 -10 0 9
10 16 23 17 20 2 21 1 4 -11 -15 -12 -15 -14 -2 -19 8 -4 14 -1 12 5 -3 15 21
21 26 6 2 -7 2 -2 0 12 l-5 25 28 -25 c18 -17 28 -21 31 -12 3 6 9 12 14 12 6
0 7 -5 3 -11 -5 -8 -1 -8 13 0 14 7 24 7 33 -2 12 -10 12 -9 3 3 -6 8 -9 23
-8 32 4 22 -7 29 -25 18z m16 -17 c-2 -10 -12 -18 -22 -18 -10 0 -24 -3 -30
-7 -7 -4 -18 0 -25 9 -12 14 -11 15 10 8 18 -5 22 -4 16 5 -5 9 -4 11 3 6 7
-4 20 -2 29 3 10 6 19 11 20 11 1 0 0 -8 -1 -17z m-106 1 c0 -8 -19 -13 -24
-6 -3 5 1 9 9 9 8 0 15 -2 15 -3z"/>
<path d="M328 92 c9 -10 19 -17 21 -16 6 5 -20 34 -30 34 -5 0 -1 -8 9 -18z"/>
<path d="M436 58 c3 -5 10 -6 15 -3 13 9 11 12 -6 12 -8 0 -12 -4 -9 -9z"/>
</g>
</svg>
